<svg width="40" height="40" viewBox="0 0 40 40" fill="none" xmlns="http://www.w3.org/2000/svg">
<path d="M32.8594 5.6092L3.73437 13.8123C3.48644 13.8801 3.26544 14.0227 3.10146 14.2206C2.93748 14.4185 2.8385 14.6622 2.81801 14.9184C2.79751 15.1746 2.85649 15.4309 2.98692 15.6524C3.11734 15.8739 3.31287 16.0497 3.54687 16.1561L16.9219 22.4842C17.1839 22.6055 17.3943 22.816 17.5156 23.078L23.8437 36.453C23.9501 36.687 24.126 36.8825 24.3474 37.0129C24.5689 37.1433 24.8252 37.2023 25.0814 37.1818C25.3376 37.1613 25.5813 37.0623 25.7792 36.8984C25.9771 36.7344 26.1197 36.5134 26.1875 36.2655L34.3906 7.14045C34.4528 6.92792 34.4566 6.70257 34.4017 6.48804C34.3469 6.27351 34.2353 6.07769 34.0787 5.92111C33.9221 5.76453 33.7263 5.65295 33.5118 5.59808C33.2973 5.5432 33.0719 5.54704 32.8594 5.6092V5.6092Z" stroke="#69d3ff" stroke-opacity="0.5" stroke-linecap="round" stroke-linejoin="round"/>
<path d="M17.3281 22.6716L24.3906 15.6091" stroke="#69d3ff" stroke-opacity="0.5" stroke-linecap="round" stroke-linejoin="round"/>
</svg>
