<svg width="64" height="64" viewBox="0 0 64 64" fill="none" xmlns="http://www.w3.org/2000/svg">
<g clip-path="url(#clip0_105_308)">
<path d="M32 0C14.3269 0 0 14.3269 0 32C0 49.6732 14.3269 64 32 64C49.6732 64 64 49.6732 64 32C64 14.3269 49.6732 0 32 0ZM32 3.25424C47.8758 3.25424 60.7458 16.1242 60.7458 32C60.7458 47.8758 47.8758 60.7458 32 60.7458C16.1242 60.7458 3.25424 47.8758 3.25424 32C3.25424 16.1242 16.1242 3.25424 32 3.25424Z" fill="#E4F5FF" fill-opacity="0.5"/>
<path d="M32.3614 9.22034C44.9424 9.22034 55.1412 19.4191 55.1412 32C55.1412 44.5808 44.9424 54.7796 32.3614 54.7796C19.7806 54.7796 9.58179 44.5808 9.58179 32C9.58179 28.9254 10.1909 25.993 11.2952 23.3168C12.9075 25.5124 15.5075 26.9378 18.4405 26.9378C23.3332 26.9378 27.2992 22.9716 27.2992 18.0791C27.2992 15.1461 25.874 12.546 23.6782 10.9337C26.3544 9.8295 29.2868 9.22034 32.3614 9.22034Z" fill="#E4F5FF" fill-opacity="0.5"/>
</g>
<defs>
<clipPath id="clip0_105_308">
<rect width="64" height="64" fill="white"/>
</clipPath>
</defs>
</svg>
