<svg width="54" height="54" viewBox="0 0 54 54" fill="none" xmlns="http://www.w3.org/2000/svg">
<g clip-path="url(#clip0_105_320)">
<path fill-rule="evenodd" clip-rule="evenodd" d="M14.2556 6.54472C14.2556 6.54472 13.4216 0.753175 26.7767 0.753174C40.7333 0.753174 39.6551 7.73579 39.6551 7.73579V19.2742C39.6551 26.2525 32.5533 26.1377 32.5533 26.1377H19.9132C12.3333 26.1377 12.5732 33.5968 12.5732 33.5968V39.8499H8.12164C8.12164 39.8499 0.662597 40.3277 0.662598 26.8524C0.662598 13.377 9.20848 14.3462 9.20848 14.3462H27.0149V12.5447H14.2705L14.2556 6.54472ZM22.0422 7.0807C22.0422 5.81273 21.0174 4.7879 19.7494 4.7879C18.4814 4.7879 17.4566 5.81273 17.4566 7.0807C17.4566 8.34868 18.4814 9.3735 19.7494 9.3735C21.0174 9.3735 22.0422 8.34868 22.0422 7.0807Z" fill="#E4F5FF" fill-opacity="0.5"/>
<path fill-rule="evenodd" clip-rule="evenodd" d="M39.677 47.2951C39.677 47.2951 40.511 53.0867 27.156 53.0867C13.1994 53.0867 14.2776 46.1041 14.2776 46.1041V34.5656C14.2776 27.5873 21.3793 27.7021 21.3793 27.7021H34.0195C41.5994 27.7021 41.3594 20.2431 41.3594 20.2431V13.99H45.811C45.811 13.99 53.2701 13.5121 53.2701 26.9875C53.2701 40.4628 44.7242 39.4937 44.7242 39.4937H26.9178V41.2951H39.6622L39.677 47.2951ZM31.8905 46.7592C31.8905 48.0271 32.9153 49.052 34.1833 49.052C35.4512 49.052 36.4761 48.0271 36.4761 46.7592C36.4761 45.4912 35.4512 44.4664 34.1833 44.4664C32.9153 44.4664 31.8905 45.4912 31.8905 46.7592Z" fill="#E4F5FF" fill-opacity="0.5"/>
</g>
<defs>
<clipPath id="clip0_105_320">
<rect width="54" height="54" fill="white"/>
</clipPath>
</defs>
</svg>
