<svg width="38" height="38" viewBox="0 0 38 38" fill="none" xmlns="http://www.w3.org/2000/svg">
<path d="M6.7391 26.2734C4.97104 23.2904 4.35259 19.7647 4.99986 16.358C5.64714 12.9514 7.51561 9.89813 10.2545 7.77148C12.9934 5.64483 16.4144 4.59103 19.8752 4.80792C23.336 5.02481 26.5986 6.49747 29.0506 8.94943C31.5026 11.4014 32.9752 14.664 33.1921 18.1248C33.409 21.5856 32.3552 25.0066 30.2285 27.7455C28.1019 30.4844 25.0487 32.3529 21.642 33.0002C18.2354 33.6474 14.7096 33.029 11.7266 31.2609V31.2609L6.79847 32.6562C6.59656 32.7153 6.38249 32.7189 6.17868 32.6668C5.97488 32.6147 5.78885 32.5087 5.6401 32.3599C5.49134 32.2112 5.38535 32.0251 5.33321 31.8213C5.28108 31.6175 5.28473 31.4035 5.34378 31.2016L6.7391 26.2734Z" stroke="#69d3ff" stroke-opacity="0.5" stroke-linecap="round" stroke-linejoin="round"/>
<path d="M22.5774 27.3125C21.0149 27.3164 19.467 27.0116 18.0227 26.4154C16.5784 25.8193 15.2661 24.9437 14.1613 23.8388C13.0564 22.734 12.1808 21.4217 11.5846 19.9774C10.9885 18.5331 10.6836 16.9852 10.6875 15.4227C10.6915 14.323 11.1311 13.2696 11.9101 12.4934C12.6891 11.7171 13.744 11.2813 14.8438 11.2813V11.2813C15.0252 11.2798 15.2037 11.3273 15.3604 11.4187C15.5172 11.5102 15.6464 11.6422 15.7344 11.8008L17.4711 14.8289C17.5744 15.013 17.6274 15.221 17.6248 15.4321C17.6222 15.6432 17.5641 15.8498 17.4563 16.0313L16.061 18.3618C16.7757 19.9517 18.0484 21.2244 19.6383 21.9391L21.9688 20.5438C22.1503 20.436 22.3569 20.3779 22.568 20.3753C22.779 20.3727 22.9871 20.4257 23.1711 20.5289L26.1993 22.2657C26.3579 22.3537 26.4899 22.4829 26.5813 22.6396C26.6727 22.7964 26.7202 22.9748 26.7188 23.1563C26.7149 24.2548 26.2778 25.3075 25.5024 26.0857C24.727 26.8639 23.6759 27.3047 22.5774 27.3125V27.3125Z" stroke="#69d3ff" stroke-opacity="0.5" stroke-linecap="round" stroke-linejoin="round"/>
</svg>
